# xmcd CD Database Entry
#
# Track frame offsets:
# 150
# 22342
# 39052
# 56820
# 72215
# 89592
# 108305
# 122847
# 140017
# 159680
# 175512
# 196072
# 214105
# 233557
#
# Disc length: 3366 seconds
#
# Revision: 6
# Processed by: cddbd v1.4PL0 Copyright (c) Steve Scherf et al.
# Submitted via: tcd 2.0b
#
DISCID=c10d240e
DTITLE=La Ruda Salska - Passager du réel
DYEAR=2001
DGENRE=Ska
TTITLE0=L'odyssée du réel
TTITLE1=L'empire du Moi
TTITLE2=Histoires improbables
TTITLE3=La comédie à la française
TTITLE4=L'évolutionnaire
TTITLE5=Héros cherche aventures
TTITLE6=Des tambours et des hommes
TTITLE7=Profession détective
TTITLE8=Le tort et la raison
TTITLE9=Carnet d'une égérie
TTITLE10=Les nuits diluviennes
TTITLE11=Dépass'man
TTITLE12=Indianapolis
TTITLE13=Les maux dits
EXTD=YEAR: 2001 ID3G: 21
EXTT0=
EXTT1=
EXTT2=
EXTT3=
EXTT4=
EXTT5=
EXTT6=
EXTT7=
EXTT8=
EXTT9=
EXTT10=
EXTT11=
EXTT12=
EXTT13=
PLAYORDER=
